# xmcd
#
# Track frame offsets:
#	150
#	15896
#	33576
#	50042
#	72830
#	89014
#	103265
#	120378
#	136558
#	156971
#	175134
#	190959
#	207025
#
# Disc length: 2995 seconds
# Revision: 1
# Processed by: cddbd v1.5.2PL0 Copyright (c) Steve Scherf et al.
# Submitted via: dBpowerAMP V12.0
#
DISCID=ab0bb10d
DTITLE=Terri Hendrix - Left Over Alls
DYEAR=2008
DGENRE=Country
TTITLE0=Posey Road Stomp
TTITLE1=Wallet
TTITLE2=Blue Eyed Cowboy
TTITLE3=Bring 'Em All In
TTITLE4=Be Willing (Anne's Song)
TTITLE5=Bottom of the Hill 2
TTITLE6=Waiting on Trains
TTITLE7=Summer Fly
TTITLE8=Hole In My Pocket
TTITLE9=Wilderness Song
TTITLE10=Rockin' on the River
TTITLE11=Walkin' on the Moon
TTITLE12=Give Me My Flowers
EXTD=
EXTT0=
EXTT1=
EXTT2=
EXTT3=
EXTT4=
EXTT5=
EXTT6=
EXTT7=
EXTT8=
EXTT9=
EXTT10=
EXTT11=
EXTT12=
PLAYORDER=
